<svg width="572" height="569" viewBox="0 0 572 569" fill="none" xmlns="http://www.w3.org/2000/svg">
<path d="M500.773 133.839C503.35 129.766 505.981 127.938 510.361 126.928C508.324 131.138 505.503 132.804 500.773 133.839Z" fill="#D4B373" stroke="#CFAE6F" stroke-miterlimit="10"/>
<path d="M55.07 160.427C50.5942 160.065 47.7226 158.715 45.5117 155.727C49.4846 155.178 50.9766 155.86 55.07 160.427Z" fill="#D4B373" stroke="#CFAE6F" stroke-miterlimit="10"/>
<path d="M463.773 75.4209C461.978 80.1211 460.449 83.1215 456.293 84.3558C457.008 80.1876 459.543 77.9892 463.773 75.4209Z" fill="#D4B373" stroke="#CFAE6F" stroke-miterlimit="10"/>
<path d="M449.521 65.4512C448.274 70.4381 447.293 71.7264 443.449 73.6588C444.239 69.1872 445.145 67.8948 449.521 65.4512Z" fill="#D4B373" stroke="#CFAE6F" stroke-miterlimit="10"/>
<path d="M428.859 64.5998C430.376 60.444 431.32 57.348 435.027 56.1387C434.299 59.4758 433.489 62.7547 428.859 64.5998Z" fill="#D4B373" stroke="#CFAE6F" stroke-miterlimit="10"/>
<path d="M110.288 480.65C108.829 484.923 107.001 487.64 102.562 489.128C103.822 484.906 106.058 482.537 110.288 480.65Z" fill="#D4B373" stroke="#CFAE6F" stroke-miterlimit="10"/>
<path d="M518.223 162.277C521.389 158.62 524.107 156.874 528.612 156.658C525.961 160.357 523.106 161.832 518.223 162.277Z" fill="#D4B373" stroke="#CFAE6F" stroke-miterlimit="10"/>
<path d="M400.75 47.6979C400.891 42.3495 401.282 41.589 405.001 38.6924C405.226 42.7858 403.401 45.4455 400.75 47.6979Z" fill="#D4B373" stroke="#CFAE6F" stroke-miterlimit="10"/>
<path d="M23.4056 288.736C19.441 290.482 16.2203 290.64 12.7461 289.322C15.7798 286.704 17.8785 286.555 23.4056 288.736Z" fill="#D4B373" stroke="#CFAE6F" stroke-miterlimit="10"/>
<path d="M550.339 359.555C545.88 360.236 542.829 359.368 539.949 357.086C543.93 355.681 545.46 355.993 550.339 359.555Z" fill="#D4B373" stroke="#CFAE6F" stroke-miterlimit="10"/>
<path d="M30.5391 186.33C34.832 186.405 37.9737 187.261 40.4423 190.07C36.1535 191.059 34.5078 190.486 30.5391 186.33Z" fill="#D4B373" stroke="#CFAE6F" stroke-miterlimit="10"/>
<path d="M83.3379 119.086C78.538 117.59 75.7412 115.927 74.0664 111.771C78.43 112.515 80.6699 114.884 83.3379 119.086Z" fill="#D4B373" stroke="#CFAE6F" stroke-miterlimit="10"/>
<path d="M15.9844 236.802C20.5557 235.639 23.8305 236.125 27.5249 238.635C23.2528 240.089 20.057 239.354 15.9844 236.802Z" fill="#D4B373" stroke="#CFAE6F" stroke-miterlimit="10"/>
<path d="M499.611 113.343C498.015 117.303 495.372 119.231 491.129 120.586C492.762 116.248 495.405 114.319 499.611 113.343Z" fill="#D4B373" stroke="#CFAE6F" stroke-miterlimit="10"/>
<path d="M510.066 147.548C512.909 143.941 515.39 141.929 519.803 141.771C517.493 145.433 514.879 147.174 510.066 147.548Z" fill="#D4B373" stroke="#CFAE6F" stroke-miterlimit="10"/>
<path d="M420.542 46.1104C420.197 50.8064 418.601 53.5658 415.16 56.3294C415.193 51.8786 416.586 48.9861 420.542 46.1104Z" fill="#D4B373" stroke="#CFAE6F" stroke-miterlimit="10"/>
<path d="M559.902 308.58C555.38 309.54 552.189 309.507 548.98 307.824C552.268 305.613 554.636 305.667 559.902 308.58Z" fill="#D4B373" stroke="#CFAE6F" stroke-miterlimit="10"/>
<path d="M253.942 23.379C251.623 20.5032 251.174 17.3947 252.225 13.293C255.28 16.7547 255.089 20.0045 253.942 23.379Z" fill="#D4B373" stroke="#CFAE6F" stroke-miterlimit="10"/>
<path d="M546.41 323.537C550.878 322.814 554.127 322.831 557.631 325.507C553.321 326.663 549.967 326.671 546.41 323.537Z" fill="#D4B373" stroke="#CFAE6F" stroke-miterlimit="10"/>
<path d="M235.472 16.8291C238.044 19.7007 238.717 22.8716 237.512 27.5385C235.056 23.5157 234.35 20.3449 235.472 16.8291Z" fill="#D4B373" stroke="#CFAE6F" stroke-miterlimit="10"/>
<path d="M353.456 31.432C352.67 25.2814 352.949 24.2757 356.149 20.627C357.15 24.5375 356.053 27.6627 353.456 31.432Z" fill="#D4B373" stroke="#CFAE6F" stroke-miterlimit="10"/>
<path d="M553.078 221.812C549.729 224.472 546.625 225.444 542.273 224.501C545.569 221.442 548.761 220.811 553.078 221.812Z" fill="#D4B373" stroke="#CFAE6F" stroke-miterlimit="10"/>
<path d="M14.0078 253.804C17.9766 252.632 21.2555 252.839 25.2035 255.266C20.7402 256.48 17.3823 256.808 14.0078 253.804Z" fill="#D4B373" stroke="#CFAE6F" stroke-miterlimit="10"/>
<path d="M179.736 525.729C179.657 531.522 179.121 532.748 175.535 535.923C174.845 531.85 176.694 529.061 179.736 525.729Z" fill="#D4B373" stroke="#CFAE6F" stroke-miterlimit="10"/>
<path d="M115.836 500.477C116.837 496.113 118.865 493.624 122.373 492.24C121.696 495.739 120.112 498.557 115.836 500.477Z" fill="#D4B373" stroke="#CFAE6F" stroke-miterlimit="10"/>
<path d="M169.504 37.2168C172.737 40.184 174.03 43.0847 174.416 46.9579C170.472 44.4894 169.616 42.852 169.504 37.2168Z" fill="#D4B373" stroke="#CFAE6F" stroke-miterlimit="10"/>
<path d="M94.1156 106.631C89.5858 104.765 87.0134 102.808 85.3594 98.5312C89.7188 99.778 91.8964 102.213 94.1156 106.631Z" fill="#D4B373" stroke="#CFAE6F" stroke-miterlimit="10"/>
<path d="M554.555 342.563C548.883 343.431 547.81 343.186 543.941 340.306C547.831 339.255 551.015 339.774 554.555 342.563Z" fill="#D4B373" stroke="#CFAE6F" stroke-miterlimit="10"/>
<path d="M480.824 107.113C482.466 102.608 483.426 101.735 487.839 100.726C486.148 104.96 484.893 106.103 480.824 107.113Z" fill="#D4B373" stroke="#CFAE6F" stroke-miterlimit="10"/>
<path d="M525.312 176.909C529.211 174 531.766 171.839 535.96 172.629C533.321 175.879 530.387 177.296 525.312 176.909Z" fill="#D4B373" stroke="#CFAE6F" stroke-miterlimit="10"/>
<path d="M154.493 45.6953C157.402 47.8937 159.118 50.57 159.226 54.385C155.128 52.1118 154.019 50.0381 154.493 45.6953Z" fill="#D4B373" stroke="#CFAE6F" stroke-miterlimit="10"/>
<path d="M473.16 470.489C477.079 472.193 479.473 474.379 480.449 478.02C477.058 476.86 474.374 474.986 473.16 470.489Z" fill="#D4B373" stroke="#CFAE6F" stroke-miterlimit="10"/>
<path d="M461.504 482.74C464.754 484.203 467.521 486.065 468.215 490.287C464.143 489.115 462.273 486.426 461.504 482.74Z" fill="#D4B373" stroke="#CFAE6F" stroke-miterlimit="10"/>
<path d="M548.593 205.114C543.104 208.792 542.688 208.892 538.125 207.902C541.088 205.326 544.118 204.096 548.593 205.114Z" fill="#D4B373" stroke="#CFAE6F" stroke-miterlimit="10"/>
<path d="M202.018 25.3066C204.296 28.0328 206.299 30.8255 204.877 35.0935C202.16 32.0265 201.083 28.972 202.018 25.3066Z" fill="#D4B373" stroke="#CFAE6F" stroke-miterlimit="10"/>
<path d="M43.2925 386.439C40.2047 389.294 37.3747 390.799 33.6719 390.558C35.995 386.884 37.703 386.086 43.2925 386.439Z" fill="#D4B373" stroke="#CFAE6F" stroke-miterlimit="10"/>
<path d="M30.9572 222.606C26.6726 223.259 23.535 222.552 20.4805 220.483C24.1708 218.679 26.1531 219.045 30.9572 222.606Z" fill="#D4B373" stroke="#CFAE6F" stroke-miterlimit="10"/>
<path d="M29.0707 338.045C25.0521 340.896 21.9311 341.847 17.8086 340.671C20.9379 337.654 24.2376 337.43 29.0707 338.045Z" fill="#D4B373" stroke="#CFAE6F" stroke-miterlimit="10"/>
<path d="M87.4908 456.733C84.6939 460.673 82.7532 463.383 78.6016 464.214C79.7943 460.046 82.4249 458.13 87.4908 456.733Z" fill="#D4B373" stroke="#CFAE6F" stroke-miterlimit="10"/>
<path d="M98.0009 469.658C96.5589 473.307 94.2856 475.58 90.6992 476.964C91.9792 472.239 93.0057 471.2 98.0009 469.658Z" fill="#D4B373" stroke="#CFAE6F" stroke-miterlimit="10"/>
<path d="M270.002 11.2852C271.942 15.4409 272.225 18.5702 270.87 22.6678C268.327 18.8902 268.181 15.7443 270.002 11.2852Z" fill="#D4B373" stroke="#CFAE6F" stroke-miterlimit="10"/>
<path d="M513.371 417.637C519.738 419.112 520.357 419.523 522.776 423.455C518.844 423.114 516.185 421.485 513.371 417.637Z" fill="#D4B373" stroke="#CFAE6F" stroke-miterlimit="10"/>
<path d="M336.829 27.0436C335.973 22.9709 336.588 19.8375 338.587 16.7705C340.486 20.6728 340.158 22.7839 336.829 27.0436Z" fill="#D4B373" stroke="#CFAE6F" stroke-miterlimit="10"/>
<path d="M476.094 87.9219C474.893 92.0153 472.794 94.542 468.547 95.6475C469.86 91.7244 471.784 89.0148 476.094 87.9219Z" fill="#D4B373" stroke="#CFAE6F" stroke-miterlimit="10"/>
<path d="M559.547 255.769C555.283 258.374 552.034 258.582 547.699 257.51C551.502 254.767 554.772 254.705 559.547 255.769Z" fill="#D4B373" stroke="#CFAE6F" stroke-miterlimit="10"/>
<path d="M21.5586 358.006C24.7918 354.432 28.0083 353.987 32.4509 354.191C29.1844 357.727 25.9097 357.976 21.5586 358.006Z" fill="#D4B373" stroke="#CFAE6F" stroke-miterlimit="10"/>
<path d="M287.459 10.9521C288.938 15.1827 289.466 18.3453 287.313 22.2143C285.422 18.3453 285.206 15.2077 287.459 10.9521Z" fill="#D4B373" stroke="#CFAE6F" stroke-miterlimit="10"/>
<path d="M548.816 274.084C552.893 271.823 556.077 271.648 560.012 273.211C556.409 275.659 553.155 275.625 548.816 274.084Z" fill="#D4B373" stroke="#CFAE6F" stroke-miterlimit="10"/>
<path d="M560.454 290.785C556.468 292.585 553.252 292.622 549.32 290.877C553.193 288.554 556.414 288.745 560.454 290.785Z" fill="#D4B373" stroke="#CFAE6F" stroke-miterlimit="10"/>
<path d="M189.601 40.8987C186.093 38.0188 185.129 34.8521 184.996 30.3223C188.674 33.4142 189.759 36.5518 189.601 40.8987Z" fill="#D4B373" stroke="#CFAE6F" stroke-miterlimit="10"/>
<path d="M97.543 86.4502C102.227 87.4808 103.826 90.3275 104.953 93.6314C101.375 92.6755 99.2053 90.3732 97.543 86.4502Z" fill="#D4B373" stroke="#CFAE6F" stroke-miterlimit="10"/>
<path d="M390.109 526.838C394.431 530.221 394.839 531.023 395.479 536.604C391.452 534.684 391.281 531.143 390.109 526.838Z" fill="#D4B373" stroke="#CFAE6F" stroke-miterlimit="10"/>
<path d="M50.1498 401.545C47.2407 404.683 44.66 406.478 40.8242 406.253C43.0808 402.563 44.6351 401.732 50.1498 401.545Z" fill="#D4B373" stroke="#CFAE6F" stroke-miterlimit="10"/>
<path d="M159.422 528.691C160.216 524.162 161.151 521.153 164.907 518.817C164.658 523.077 163.465 525.974 159.422 528.691Z" fill="#D4B373" stroke="#CFAE6F" stroke-miterlimit="10"/>
<path d="M63.2526 145.848C58.6812 145.242 55.9592 143.696 53.9062 139.918C57.9955 140.483 60.809 141.917 63.2526 145.848Z" fill="#D4B373" stroke="#CFAE6F" stroke-miterlimit="10"/>
<path d="M484.977 459.148C488.621 459.631 491.135 461.53 493.093 465.997C488.625 464.68 486.481 462.373 484.977 459.148Z" fill="#D4B373" stroke="#CFAE6F" stroke-miterlimit="10"/>
<path d="M426.386 521.502C422.674 518.742 420.825 516.157 420.484 511.827C424.283 514.05 425.858 516.781 426.386 521.502Z" fill="#D4B373" stroke="#CFAE6F" stroke-miterlimit="10"/>
<path d="M35.7106 206.199C31.2307 207.089 28.1388 206.162 24.8516 203.211C29.3439 202.164 32.2821 203.614 35.7106 206.199Z" fill="#D4B373" stroke="#CFAE6F" stroke-miterlimit="10"/>
<path d="M538.132 391.8C534.504 392.581 531.645 391.272 528.645 388.475C533.029 387.204 535.601 389.464 538.132 391.8Z" fill="#D4B373" stroke="#CFAE6F" stroke-miterlimit="10"/>
<path d="M110.418 74.2412C114.786 76.6142 116.997 78.8333 117.79 83.1138C113.842 81.4349 111.893 78.9414 110.418 74.2412Z" fill="#D4B373" stroke="#CFAE6F" stroke-miterlimit="10"/>
<path d="M12.4336 306.237C16.4855 303.914 19.6355 303.677 23.7705 305.098C20.1342 307.546 16.9592 307.708 12.4336 306.237Z" fill="#D4B373" stroke="#CFAE6F" stroke-miterlimit="10"/>
<path d="M14.3867 323.716C18.3056 321.019 21.3643 320.446 25.2915 321.796C22.1455 324.568 18.9872 324.626 14.3867 323.716Z" fill="#D4B373" stroke="#CFAE6F" stroke-miterlimit="10"/>
<path d="M503.727 452.212C498.441 450.712 497.764 450.188 495.645 446.273C499.9 446.681 500.764 447.283 503.727 452.212Z" fill="#D4B373" stroke="#CFAE6F" stroke-miterlimit="10"/>
<path d="M388.794 32.0928C389.172 35.646 388.329 38.6589 385.179 41.3892C384.41 37.1337 386.097 34.3992 388.794 32.0928Z" fill="#D4B373" stroke="#CFAE6F" stroke-miterlimit="10"/>
<path d="M542.47 188.745C539.977 191.854 536.768 192.731 532.82 192.764C535.754 188.949 537.45 188.267 542.47 188.745Z" fill="#D4B373" stroke="#CFAE6F" stroke-miterlimit="10"/>
<path d="M58.1676 415.767C55.4372 419.785 52.6529 421.34 48.2852 421.809C50.6415 417.857 53.5713 416.548 58.1676 415.767Z" fill="#D4B373" stroke="#CFAE6F" stroke-miterlimit="10"/>
<path d="M556.677 238.585C552.904 241.457 549.728 241.88 545.598 241.045C548.856 238.107 552.077 237.691 556.677 238.585Z" fill="#D4B373" stroke="#CFAE6F" stroke-miterlimit="10"/>
<path d="M221.315 31.0123C218.53 27.0934 217.092 24.0929 218.592 19.8457C221.215 23.0872 222.013 26.2622 221.315 31.0123Z" fill="#D4B373" stroke="#CFAE6F" stroke-miterlimit="10"/>
<path d="M454.375 501.504C451.166 499.651 449.043 497.348 448.266 493.758C452.405 494.83 453.926 496.733 454.375 501.504Z" fill="#D4B373" stroke="#CFAE6F" stroke-miterlimit="10"/>
<path d="M304.43 11.123C306.529 15.9687 305.856 19.2268 304.123 23.4989C302.161 19.0481 302.739 15.7734 304.43 11.123Z" fill="#D4B373" stroke="#CFAE6F" stroke-miterlimit="10"/>
<path d="M320.694 24.334C319.032 20.2821 319.763 17.2151 321.97 13.2256C323.233 17.6556 323.225 20.814 320.694 24.334Z" fill="#D4B373" stroke="#CFAE6F" stroke-miterlimit="10"/>
<path d="M11.9844 271.511C16.3853 269.753 19.4648 269.607 23.313 271.731C19.4274 273.713 16.3479 273.377 11.9844 271.511Z" fill="#D4B373" stroke="#CFAE6F" stroke-miterlimit="10"/>
<path d="M369.058 36.3738C369.012 31.4617 369.473 28.27 372.706 25.4316C373.567 29.6581 372.199 32.6087 369.058 36.3738Z" fill="#D4B373" stroke="#CFAE6F" stroke-miterlimit="10"/>
<path d="M521.508 403.266C525.88 403.058 528.747 404.571 531.627 408.195C527.185 408.016 524.188 406.79 521.508 403.266Z" fill="#D4B373" stroke="#CFAE6F" stroke-miterlimit="10"/>
<path d="M36.9375 170.368C41.5837 170.647 44.6132 171.586 47.2729 175.122C43.0631 175.28 40.1125 174.133 36.9375 170.368Z" fill="#D4B373" stroke="#CFAE6F" stroke-miterlimit="10"/>
<path d="M410.65 528.89C407.642 526.891 406.079 524.185 405.805 519.992C409.749 522.278 410.638 525.353 410.65 528.89Z" fill="#D4B373" stroke="#CFAE6F" stroke-miterlimit="10"/>
<path d="M76.1678 444.499C74.3434 447.703 71.9082 449.681 68.3633 450.687C69.4396 446.407 71.2765 444.96 76.1678 444.499Z" fill="#D4B373" stroke="#CFAE6F" stroke-miterlimit="10"/>
<path d="M129.82 510.991C130.651 506.249 132.447 503.656 135.913 501.541C136.004 505.95 133.627 508.232 129.82 510.991Z" fill="#D4B373" stroke="#CFAE6F" stroke-miterlimit="10"/>
<path d="M544.306 375.684C540.599 376.623 537.657 375.426 534.453 372.746C538.912 371.532 541.73 373.294 544.306 375.684Z" fill="#D4B373" stroke="#CFAE6F" stroke-miterlimit="10"/>
<path d="M63.0938 125.266C67.7731 126.388 70.4661 127.988 72.4899 131.707C68.0765 131.466 65.7534 129.247 63.0938 125.266Z" fill="#D4B373" stroke="#CFAE6F" stroke-miterlimit="10"/>
<path d="M504.395 431.99C509.074 432.472 511.547 434.459 514.202 438.132C509.56 437.659 507.042 435.739 504.395 431.99Z" fill="#D4B373" stroke="#CFAE6F" stroke-miterlimit="10"/>
<path d="M37.2174 370.348C34.2876 373.631 31.3079 374.828 26.9609 374.125C29.845 370.93 32.9494 370.073 37.2174 370.348Z" fill="#D4B373" stroke="#CFAE6F" stroke-miterlimit="10"/>
<path d="M150.306 510.659C149.824 515.068 148.228 517.845 144.434 520.238C144.92 515.833 146.457 513.02 150.306 510.659Z" fill="#D4B373" stroke="#CFAE6F" stroke-miterlimit="10"/>
<path d="M124.906 64.042C128.31 66.2529 130.429 68.5385 130.99 72.1291C126.868 70.791 125.854 69.5235 124.906 64.042Z" fill="#D4B373" stroke="#CFAE6F" stroke-miterlimit="10"/>
<path d="M434.887 502.888C439.458 506.212 439.803 506.711 440.584 511.12C436.553 509.155 435.951 508.332 434.887 502.888Z" fill="#D4B373" stroke="#CFAE6F" stroke-miterlimit="10"/>
<path d="M66.7986 430.402C64.3051 433.789 61.9945 436.058 58.1172 436.341C60.1244 432.21 61.101 431.508 66.7986 430.402Z" fill="#D4B373" stroke="#CFAE6F" stroke-miterlimit="10"/>
<path d="M138.91 54.252C142.576 56.4961 144.462 59.0768 144.853 63.432C141.192 61.1672 139.226 58.6404 138.91 54.252Z" fill="#D4B373" stroke="#CFAE6F" stroke-miterlimit="10"/>
<path d="M454.681 287.353C453.435 281.198 450.6 275.671 447.883 270.081C441.001 255.902 432.091 242.928 423.866 229.55C420.342 223.811 417.998 217.436 420.575 210.907C424.049 202.105 423.567 193.711 420.326 185.142C419.353 182.565 419.145 179.955 421.892 178.131C432.697 170.95 434.775 160.452 432.618 148.691C430.341 136.141 422.699 127.913 410.755 123.757C408.32 122.926 404.854 122.232 405.303 126.595C406.263 135.842 400.868 141.319 394.315 146.069C385.908 152.17 376.162 155.066 366.055 156.513C353.754 158.266 341.536 158.075 329.215 152.702C335.939 146.938 339.845 139.711 344.084 132.687C352.853 118.18 374.837 110.728 389.835 117.012C395.482 119.377 398.317 118.03 400.012 112.175C402.123 104.877 400.087 98.6102 394.165 93.7936C374.787 78.0266 353.439 66.4404 328.379 62.6794C311.669 60.1859 294.792 59.201 278.036 57.1855C265.428 55.6644 253.517 57.7673 242.089 62.8165C232.951 66.7988 223.587 70.2401 214.046 73.1228C200.024 77.4531 187.636 84.5761 177.059 94.7328C171.133 100.422 165.336 106.24 159.501 112.021C146.731 124.688 137.102 139.416 131.387 156.488C124.04 178.426 121.11 200.975 126.317 223.715C129.064 235.717 135.123 246.955 134.442 259.767C134.384 260.86 134.891 262.007 135.273 263.091C137.53 269.853 140.696 271.922 146.76 272.55C153.745 273.269 154.157 268.099 155.636 263.823C157.693 257.847 161.238 253.778 168.282 252.906C167.451 255.619 166.79 257.951 166.009 260.236C164.517 264.587 163.1 268.93 163.383 273.635C163.682 278.622 165.257 279.777 169.932 278.206C171.682 277.628 173.369 276.485 175.534 277.72C171.657 284.315 166.745 289.065 158.911 290.341C153.396 291.238 151.892 293.699 152.428 299.359C152.65 301.646 153.358 303.859 154.506 305.85C158.687 313.285 164.526 318.65 172.791 321.38C178.077 323.13 178.651 324.705 176.914 329.783C173.976 338.402 175.035 340.518 184.037 343.082C186.655 343.826 187.561 345.06 186.884 347.686C184.02 358.716 179.69 369.034 172.8 378.231C164.596 389.186 153.463 396.221 141.532 402.335C133.482 406.453 127.045 412.267 123.113 421.202C131.408 420.363 139.77 420.44 148.048 421.43C172.052 424.157 193.861 433.133 214.357 445.58C237.26 459.489 253.422 471.237 274.948 487.092C291.031 496.213 286.522 492.889 303.033 500.29C306.175 501.308 324.714 505.344 328.583 504.18C325.433 499.422 322.312 495.611 319.44 491.251C310.048 476.964 311.046 477.646 306.973 460.819C303.511 446.556 304.895 433.877 316.818 423.704C320.558 420.52 323.65 416.606 327.062 413.052C330.474 409.499 332.834 405.493 332.901 400.435C332.963 395.449 335.681 393.421 340.381 393.337C347.94 393.196 355.421 393.607 362.889 395.07C372.543 396.961 381.49 401.179 391.148 403.037C405.98 405.884 418.493 397.934 421.901 383.268C423.752 375.72 423.02 367.769 419.823 360.686C417.716 355.927 418.202 351.605 420.824 347.163C425.421 339.358 425.283 339.055 419.137 333.112C427.32 329.085 428.612 326.463 426.908 317.22C425.487 309.495 428.193 305.513 435.976 303.814C440.606 302.8 445.252 301.773 449.404 299.359C454.208 296.583 455.808 292.834 454.681 287.353ZM259.381 200.032C251.682 202.741 244.014 205.54 236.379 208.426C234.887 208.992 233.711 209.424 232.29 208.397C231.192 207.604 230 207.899 229.272 208.979C228.084 210.758 225.324 212.237 226.513 214.639C227.984 217.619 230.286 214.918 231.961 214.415C239.404 212.167 246.743 209.569 254.98 206.81C248.805 219.593 239.421 226.483 226.492 228.877C220.234 230.036 213.988 231.325 207.791 232.871C203.332 233.984 199.363 236.125 196.338 241.274L226.787 234.961C221.701 252 194.41 269.832 168.332 272.928C172.301 258.508 174.491 243.746 182.329 230.834C187.021 223.117 193.383 217.149 202.393 212.877C200.731 218.517 199.272 223.483 197.751 228.424C197.364 229.671 196.421 231.017 198.287 231.69C200.153 232.364 200.431 230.577 200.868 229.488C203.915 221.916 206.913 214.325 209.861 206.714C214.814 193.989 224.576 186.692 237.858 181.979C236.196 188.574 234.633 194.492 233.212 200.443C232.842 201.997 231.379 204.399 233.586 205.014C236.196 205.754 236.188 202.887 236.857 201.108C239.965 192.859 242.878 184.518 246.39 176.439C252.179 163.141 267.942 153.62 281.486 155.245C276.557 161.479 271.798 167.467 267.094 173.489C266.413 174.357 265.286 175.683 265.548 176.302C266.034 177.462 267.56 177.707 268.939 177.694C277.666 177.616 286.098 179.772 295.17 180.828C284.565 190.731 272.085 195.564 259.381 200.032ZM271.94 174.17C277.263 168.273 282.013 162.95 286.834 157.676C292.037 151.987 297.323 146.372 302.543 140.7C312.355 130.057 325.038 126.832 339.92 126.225C331.725 136.744 330.939 151.605 316.232 156.089C325.424 156.679 333.516 159.895 343.344 161.4C320.612 174.549 297.24 176.872 271.94 174.17Z" fill="#D4B373" stroke="#CFAE6F" stroke-miterlimit="10"/>
<path d="M277.578 512.704C265.442 512.333 253.362 510.912 241.472 508.457C183.94 496.247 137.092 466.89 102.487 419.24C64.9725 367.572 51.7862 309.644 62.4001 246.809C70.9776 196.134 95.0063 153.35 132.907 118.674C143.226 109.241 152.921 99.2295 162.953 89.5341C163.539 88.9648 164.582 88.5575 164.308 87.4562C164.301 87.4285 164.288 87.4026 164.27 87.3807C164.252 87.3588 164.228 87.3413 164.202 87.3297C164.176 87.3181 164.148 87.3126 164.119 87.3136C164.091 87.3146 164.063 87.3222 164.038 87.3357C99.9932 122.39 34.4234 215.192 56.2246 329.833C78.5868 447.441 183.765 524.186 294.932 519.395C294.97 519.392 295.005 519.378 295.035 519.355C295.064 519.331 295.086 519.3 295.097 519.264C295.109 519.228 295.109 519.189 295.098 519.153C295.087 519.117 295.065 519.086 295.036 519.062C286.974 512.957 286.82 513.04 277.578 512.704Z" fill="#D4B373" stroke="#CFAE6F" stroke-miterlimit="10"/>
<path d="M571.483 281.265C570.645 224.761 553.057 169.777 520.947 123.276C488.837 76.7749 443.65 40.8487 391.108 20.047C338.566 -0.754703 281.033 -5.49613 225.794 6.42317C170.556 18.3425 120.097 46.3863 80.8073 87.0032C53.8364 114.768 33.1448 146.892 19.3019 182.478C-7.48793 251.602 -6.35237 328.435 22.4686 396.737C37.2553 431.798 58.8805 463.561 86.081 490.171C111.595 515.317 141.661 535.379 174.674 549.287C174.855 549.364 175.057 549.377 175.247 549.323C175.437 549.27 175.603 549.153 175.717 548.992L175.829 548.83C177.117 547.03 178.493 545.264 179.823 543.56L180.134 543.145C180.216 543.039 180.272 542.916 180.298 542.785C180.325 542.654 180.32 542.518 180.286 542.389C180.251 542.26 180.187 542.141 180.099 542.04C180.011 541.94 179.901 541.862 179.777 541.811C147.678 528.603 118.377 509.425 93.4284 485.292C40.3052 434.043 10.313 364.966 9.01223 290.802C7.71147 216.638 35.1936 146.526 86.4841 93.4031C137.775 40.2799 206.839 10.2877 280.974 9.04098C355.109 7.79425 425.179 35.3428 478.373 86.6832C531.567 138.024 561.439 207.055 562.69 281.173C563.94 355.291 536.35 425.378 484.977 478.539C456.796 507.644 422.564 530.201 384.702 544.616C384.532 544.677 384.392 544.803 384.314 544.966C384.237 545.13 384.227 545.318 384.287 545.489C385.08 547.716 386.431 549.773 387.329 551.976C387.397 552.14 387.527 552.272 387.691 552.341C387.855 552.411 388.039 552.414 388.205 552.35C404.933 545.944 421.026 537.991 436.275 528.595C456.39 516.145 474.922 501.305 491.468 484.399C518.215 456.43 538.727 424.207 552.437 388.612C565.647 354.392 572.114 317.94 571.483 281.265Z" fill="#D4B373"/>
<path d="M546.085 288.471C545.814 321.967 539.028 355.091 526.104 385.995C512.647 418.214 492.982 447.122 467.649 471.923C453.36 485.925 437.508 498.236 420.406 508.615C406.804 516.868 393.95 523.339 379.596 528.766C379.287 528.883 378.949 528.9 378.629 528.817C378.309 528.734 378.023 528.553 377.809 528.301C376.384 526.605 376.392 524.452 375.864 522.404C375.764 522.022 375.809 521.616 375.99 521.265C376.171 520.915 376.476 520.643 376.845 520.504C411.338 507.563 441.048 487.316 466.847 460.532C563.015 360.702 560.239 201.312 460.659 105.214C360.775 8.84179 201.231 11.4516 105.008 111.032C8.72299 210.721 11.3744 370.286 110.922 466.749C133.744 488.923 160.624 506.491 190.093 518.493C190.138 518.511 190.173 518.547 190.192 518.591C190.21 518.635 190.211 518.685 190.193 518.73C189.196 521.311 188.115 523.891 187.284 526.472C187.276 526.496 187.263 526.518 187.247 526.537C187.23 526.556 187.209 526.572 187.186 526.582C187.163 526.593 187.138 526.598 187.113 526.599C187.087 526.599 187.062 526.594 187.039 526.584C171.323 520.134 156.278 512.158 142.119 502.772C127.368 492.966 113.636 481.708 101.127 469.168C64.9515 432.79 40.3632 386.511 30.4649 336.172C20.5666 285.832 25.8018 233.689 45.5099 186.322C59.0188 153.854 78.9401 124.446 104.081 99.8573C140.658 63.9774 187.034 39.7228 237.368 30.1483C287.702 20.5738 339.744 26.1076 386.94 46.0526C419.251 59.7209 448.179 79.6062 472.931 105.164C520.501 154.25 546.784 220.121 546.072 288.471H546.085Z" fill="#D4B373"/>
<path d="M516.65 250.068C505.638 181.365 470.205 128.134 412.511 89.5431C410.977 88.5166 409.627 86.8543 406.614 87.2076C411.293 90.9478 411.318 96.9653 415.944 100.435C490.199 156.123 522.365 229.987 509.382 322.058C501.424 378.506 473.405 424.523 429.836 461.002C404.623 482.11 375.853 496.642 344.082 505.216C347.066 511.699 347.066 511.699 353.516 509.762C464.749 476.371 535.04 364.817 516.65 250.068Z" fill="#D4B373" stroke="#CFAE6F" stroke-miterlimit="10"/>
<path d="M197.42 528.396C200.856 529.48 202.585 529.995 206.047 530.968L198.779 556.854C196.214 556.131 194.934 555.757 192.383 554.98L198.791 533.935C197.237 533.461 196.46 533.22 194.91 532.722C195.919 531.001 196.41 530.133 197.42 528.396Z" fill="#D4B373"/>
<path d="M225.473 535.244C228.669 535.9 230.988 537.567 232.5 540.318C234.013 543.069 234.47 546.456 233.809 550.495C233.032 555.221 231.316 558.545 228.619 560.419C227.385 561.323 225.974 561.957 224.48 562.28C222.985 562.604 221.439 562.61 219.942 562.298C216.459 561.587 213.899 559.742 212.341 556.841C210.782 553.941 210.525 550.525 211.485 546.614C212.507 542.458 214.319 539.379 216.85 537.318C217.996 536.328 219.358 535.622 220.827 535.256C222.296 534.89 223.83 534.875 225.307 535.211L225.473 535.244ZM227.754 549.951C228.257 547.266 228.191 545.072 227.584 543.368C226.977 541.664 225.922 540.663 224.43 540.355C222.851 540.031 221.454 540.53 220.212 541.856C218.969 543.181 218.034 545.18 217.423 547.923C216.87 550.416 216.904 552.494 217.544 554.157C218.184 555.819 219.302 556.875 220.868 557.199C222.435 557.523 223.923 557.032 225.169 555.723C226.416 554.414 227.285 552.494 227.754 549.947V549.951Z" fill="#D4B373"/>
<path d="M247.896 538.873C251.12 539.259 253.564 540.73 255.289 543.349C257.013 545.967 257.753 549.304 257.421 553.385C257.034 558.156 255.613 561.609 253.074 563.699C251.923 564.702 250.574 565.451 249.115 565.897C247.656 566.344 246.119 566.479 244.604 566.293C241.088 565.877 238.4 564.244 236.613 561.48C234.826 558.717 234.294 555.334 234.95 551.361C235.628 547.134 237.174 543.914 239.522 541.653C240.577 540.573 241.872 539.756 243.301 539.27C244.731 538.783 246.255 538.64 247.75 538.852L247.896 538.873ZM251.361 553.339C251.64 550.625 251.395 548.444 250.655 546.794C249.915 545.144 248.793 544.234 247.272 544.051C245.681 543.86 244.334 544.466 243.208 545.896C242.082 547.326 241.317 549.412 240.935 552.171C240.586 554.665 240.785 556.743 241.558 558.405C242.331 560.067 243.532 560.965 245.128 561.156C246.724 561.347 248.153 560.74 249.284 559.332C250.414 557.923 251.1 555.916 251.361 553.339Z" fill="#D4B373"/>
<path d="M261.728 539.778C266.976 540.156 272.275 540.368 277.519 540.414L277.457 545.779C273.459 545.729 271.46 545.671 267.483 545.484C267.375 547.745 267.321 548.875 267.217 551.136C271.29 551.327 273.33 551.39 277.407 551.435L277.345 556.838C273.189 556.792 271.14 556.73 267.005 556.534C266.793 561.048 266.685 563.304 266.473 567.817C263.81 567.693 262.476 567.618 259.824 567.431C260.456 558.213 261.09 548.996 261.728 539.778Z" fill="#D4B373"/>
<path d="M288.718 540.318C290.593 540.264 291.532 540.231 293.406 540.144C297.761 549.245 302.37 558.167 307.261 566.994C304.585 567.227 303.247 567.331 300.566 567.505C299.436 565.398 298.879 564.338 297.782 562.219C293.123 562.485 290.792 562.576 286.146 562.659C285.232 564.854 284.766 565.951 283.819 568.141C281.151 568.166 279.817 568.166 277.145 568.141C281.271 558.961 285.124 549.718 288.718 540.318ZM291.403 549.311C290.156 552.636 289.52 554.298 288.199 557.589C291.037 557.515 292.454 557.461 295.293 557.319C293.697 554.128 292.92 552.528 291.403 549.311Z" fill="#D4B373"/>
<path d="M327.359 537.962L328.493 544.611C325.094 543.365 322.26 542.878 319.97 543.203C317.68 543.527 315.91 544.528 314.692 546.236C313.474 547.944 313.001 550.089 313.291 552.69C313.57 555.15 314.538 557.037 316.267 558.325C317.996 559.614 320.157 560.087 322.742 559.718C325.007 559.398 327.6 558.155 330.434 555.977L331.564 562.593C328.173 564.256 325.239 565.257 322.837 565.594C318.681 566.176 314.999 565.224 311.858 562.801C310.357 561.674 309.117 560.237 308.222 558.588C307.327 556.938 306.798 555.115 306.671 553.243C306.475 551.364 306.653 549.464 307.196 547.654C307.739 545.844 308.635 544.16 309.834 542.7C310.955 541.238 312.355 540.013 313.953 539.096C315.551 538.179 317.315 537.589 319.143 537.359C321.607 537.015 324.325 537.227 327.359 537.962Z" fill="#D4B373"/>
<path d="M331.008 535.814C336.211 534.862 341.397 533.736 346.55 532.46C347.074 534.592 347.34 535.66 347.864 537.792C343.97 538.752 342.016 539.192 338.098 540.011L339.24 545.488C343.234 544.657 345.229 544.2 349.214 543.223C349.734 545.301 349.991 546.373 350.507 548.472C346.459 549.469 344.431 549.931 340.358 550.779L341.53 556.397C345.686 555.533 347.764 555.063 351.878 554.049L353.187 559.381C347.494 560.719 341.821 561.941 336.078 563.067C334.393 553.983 332.703 544.898 331.008 535.814Z" fill="#D4B373"/>
<path d="M366.987 529.235C366.027 531.263 365.537 532.273 364.531 534.293C362.229 533.802 360.662 533.661 359.802 533.914C359.161 534.109 358.622 534.546 358.298 535.131C357.973 535.717 357.89 536.406 358.065 537.052C358.439 538.365 360.047 539.13 362.831 539.358C364.458 539.463 366.073 539.702 367.66 540.073C368.842 540.39 369.934 540.976 370.852 541.785C371.819 542.611 372.538 543.688 372.93 544.898C373.674 547.159 373.316 549.469 371.799 551.788C370.27 554.123 367.934 555.813 365.237 556.534C362.129 557.436 358.667 556.979 354.985 555.13C356.232 552.923 356.826 551.805 358.002 549.598C360.338 550.845 362.345 551.223 363.974 550.745C364.788 550.484 365.475 549.926 365.898 549.183C366.135 548.865 366.299 548.5 366.379 548.112C366.458 547.724 366.452 547.324 366.36 546.939C365.944 545.555 363.974 544.836 360.496 544.678C359.027 544.665 357.568 544.446 356.161 544.025C355.176 543.636 354.306 543.004 353.63 542.189C352.873 541.344 352.327 540.331 352.039 539.234C351.721 538.159 351.636 537.03 351.788 535.92C351.941 534.81 352.328 533.745 352.924 532.797C354.121 530.885 355.974 529.58 358.513 528.828C361.293 527.922 364.307 528.067 366.987 529.235Z" fill="#D4B373"/>
</svg>
